<svg version="1.0" xmlns="http://www.w3.org/2000/svg"
 width="1349.000000pt" height="496.000000pt" viewBox="0 0 1349.000000 496.000000"
 preserveAspectRatio="xMidYMid meet">

<g transform="translate(0.000000,496.000000) scale(0.100000,-0.100000)"
fill="#222" stroke="none">
<path d="M7374 4892 l-112 -57 -448 -515 c-247 -284 -455 -523 -463 -533 -12
-15 -5 -27 63 -106 42 -49 76 -93 76 -98 0 -4 -38 -28 -84 -52 l-83 -44 -379
336 -378 336 -111 -59 c-89 -47 -114 -66 -132 -97 l-22 -38 -3 86 -3 86 -615
-197 c-540 -172 -628 -204 -725 -255 -60 -32 -111 -59 -113 -61 -5 -3 29 -648
34 -653 2 -3 49 6 104 19 55 13 101 22 104 19 2 -2 6 -33 8 -69 l5 -65 -141 0
c-111 -1 -160 -6 -229 -23 -116 -29 -224 -73 -316 -128 -41 -24 -76 -43 -78
-41 -2 3 2 38 8 78 16 101 6 284 -21 379 -68 240 -230 447 -472 600 -172 108
-291 151 -513 184 -442 67 -931 -9 -1429 -220 -217 -93 -329 -152 -571 -305
-108 -68 -162 -110 -233 -182 l-93 -94 292 -494 c160 -272 297 -500 304 -507
9 -10 33 -4 119 33 60 26 112 43 116 38 4 -4 222 -496 484 -1093 263 -597 479
-1086 481 -1088 1 -1 207 63 456 143 l454 147 109 71 c60 40 113 75 118 78 8
5 -109 479 -168 683 -16 58 -16 58 35 -21 52 -81 163 -197 235 -245 84 -58
192 -105 293 -129 75 -18 109 -20 228 -16 165 6 254 27 392 92 88 41 258 150
283 181 7 8 16 14 20 14 4 0 13 -72 20 -161 8 -94 18 -163 24 -165 6 -2 203
24 437 59 l425 63 115 61 114 61 -4 271 c-2 149 -1 271 3 271 4 0 363 -176
799 -392 l791 -391 113 59 113 59 0 375 0 375 67 13 c102 19 206 58 331 122
61 32 112 55 112 51 0 -3 -14 -85 -30 -181 -16 -96 -30 -186 -30 -200 l0 -26
488 -78 487 -77 90 49 c50 27 93 48 97 46 4 -3 32 -52 63 -110 l57 -105 85 46
c47 25 87 44 89 42 3 -3 12 -65 21 -138 9 -74 19 -137 22 -141 6 -6 1072 -198
1103 -198 12 0 207 100 227 116 4 3 -25 208 -36 251 -4 19 0 23 34 28 94 15
188 38 234 57 27 12 52 18 55 15 3 -3 -4 -89 -16 -192 -13 -102 -21 -187 -19
-189 2 -1 157 -24 344 -50 187 -27 352 -50 368 -53 l27 -5 0 -149 0 -148 223
-71 c122 -40 291 -94 375 -121 84 -27 160 -49 169 -49 8 0 64 26 124 58 l109
57 501 1509 c275 830 497 1512 492 1516 -9 7 -1010 250 -1031 250 -7 0 -46
-18 -86 -40 -40 -22 -75 -40 -78 -40 -3 0 -11 29 -18 65 -7 36 -14 65 -15 65
-2 0 -279 61 -616 135 l-612 134 -101 -55 c-55 -31 -105 -60 -111 -65 -6 -6
-8 -123 -6 -314 l3 -303 -44 -6 c-23 -3 -71 -8 -106 -11 -132 -13 -310 -77
-435 -157 -26 -17 -49 -29 -51 -27 -2 2 -42 252 -90 554 -48 303 -89 562 -92
578 l-6 27 -409 0 -409 0 -88 -47 c-48 -25 -99 -55 -114 -65 -24 -16 -53 -18
-355 -19 l-328 0 -110 -62 -109 -62 -23 -134 c-12 -73 -24 -135 -26 -137 -2
-2 -21 11 -43 30 -153 131 -361 217 -593 247 l-93 12 75 41 c41 23 201 109
356 191 154 83 281 154 281 158 0 8 -483 732 -499 749 -3 3 -56 -19 -117 -50z
m205 -456 c66 -90 123 -170 126 -177 4 -11 -95 -64 -370 -202 -207 -103 -379
-187 -384 -187 -5 0 -20 17 -34 38 l-25 38 276 332 c152 182 279 329 283 326
4 -2 62 -78 128 -168z m2302 -1180 l86 -559 -54 -71 c-110 -146 -191 -340
-214 -512 -45 -341 122 -686 410 -845 44 -24 82 -49 85 -56 3 -6 8 -39 12 -73
l7 -62 -29 6 c-16 3 -153 24 -304 47 -151 22 -276 42 -278 44 -3 3 -161 1041
-162 1065 0 8 -52 -117 -115 -279 -63 -162 -116 -295 -118 -297 -1 -2 -79 161
-171 362 -93 200 -173 361 -177 357 -3 -5 -35 -192 -70 -416 -35 -225 -66
-412 -69 -417 -4 -7 -567 83 -575 92 -2 2 14 104 36 228 21 124 39 230 39 235
0 6 56 69 125 140 68 72 124 132 125 135 0 3 -40 40 -89 82 l-88 77 96 573 96
573 292 3 292 2 10 -52 c6 -29 38 -204 72 -388 33 -184 62 -336 63 -337 1 -1
37 199 80 445 44 246 81 450 83 455 3 4 97 6 211 5 l207 -3 86 -559z m-4828
472 c4 -40 14 -211 24 -380 9 -170 19 -308 22 -308 3 1 127 172 275 380 l270
380 25 -23 c133 -120 506 -482 506 -492 0 -6 -166 -186 -369 -399 -202 -213
-365 -390 -361 -394 3 -4 160 -68 348 -142 l342 -135 46 -71 c155 -234 391
-387 687 -445 l112 -22 0 -254 0 -253 -900 450 -900 450 -2 -473 -3 -472 -225
-31 c-124 -17 -228 -29 -231 -25 -4 3 -13 90 -21 193 l-16 188 39 77 c81 166
113 302 112 483 0 231 -74 432 -214 585 l-37 40 -32 390 c-18 215 -34 392 -36
394 -2 2 -48 -8 -103 -21 l-99 -25 -6 21 c-3 11 -6 57 -6 102 l0 80 368 111
c202 61 370 111 373 112 3 0 9 -32 12 -71z m-2743 -42 c187 -30 289 -69 434
-164 380 -251 469 -650 241 -1080 -70 -131 -148 -235 -275 -363 -95 -96 -251
-224 -336 -275 -17 -10 -9 -47 134 -598 84 -324 152 -589 150 -591 -14 -13
-491 -156 -497 -149 -5 5 -235 515 -511 1134 -277 619 -504 1126 -505 1128 -2
2 -58 -24 -125 -58 -68 -34 -126 -58 -131 -53 -4 4 -89 145 -188 313 l-181
304 53 33 c100 63 363 191 504 247 234 92 503 162 718 185 119 13 396 6 515
-13z m5131 -141 c155 -33 301 -110 421 -223 37 -35 68 -68 68 -72 0 -4 -166
-185 -370 -401 l-369 -394 52 -3 c130 -8 297 62 418 175 52 49 83 72 91 67 7
-5 96 -83 197 -174 l183 -165 -72 -67 c-178 -168 -429 -293 -711 -355 -126
-27 -394 -25 -503 5 -234 65 -424 215 -516 407 -54 112 -73 204 -73 350 0 151
20 241 79 357 49 99 91 153 183 240 233 219 601 319 922 253z m4213 -94 c326
-66 380 -80 386 -97 4 -10 65 -294 136 -631 71 -336 132 -606 135 -600 4 7 16
53 27 102 33 145 244 1010 246 1013 4 3 599 -127 604 -133 4 -3 -846 -2586
-854 -2594 -2 -3 -422 118 -425 123 0 0 -9 342 -19 760 -10 417 -20 760 -23
762 -2 2 -50 -258 -106 -579 -56 -320 -103 -583 -104 -583 -1 -1 -105 15 -232
35 l-230 37 1 30 c1 16 7 94 14 174 l13 144 54 49 c73 67 174 204 227 307 83
162 116 296 116 470 0 221 -71 413 -205 559 l-55 58 20 203 c11 112 19 204 17
206 -1 1 -40 12 -86 25 l-84 24 2 93 c3 106 6 122 30 121 9 0 187 -35 395 -78z
m-719 -596 c113 -24 228 -86 312 -170 381 -379 122 -1090 -467 -1287 -88 -30
-105 -32 -235 -32 -126 0 -148 2 -221 27 -184 61 -329 205 -395 390 -30 85
-38 274 -15 371 38 160 111 296 229 422 213 228 520 336 792 279z m-4909 -105
c-3 -22 -2 -91 4 -152 6 -61 9 -112 8 -113 -2 -2 -56 18 -121 43 l-118 45 108
109 c59 59 112 108 117 108 5 0 6 -18 2 -40z m-1931 -65 c315 -55 524 -295
542 -620 12 -233 -83 -474 -265 -666 -129 -138 -303 -239 -478 -280 -80 -18
-114 -21 -217 -17 -103 5 -134 10 -204 36 -104 38 -176 86 -251 166 -71 77
-111 144 -148 251 -26 73 -28 92 -28 215 1 117 4 147 28 225 50 163 126 289
253 418 176 177 403 280 634 286 26 0 86 -6 134 -14z"/>
<path d="M2208 2998 c-68 -8 -160 -37 -192 -61 -18 -13 -17 -18 13 -123 75
-252 224 -730 231 -738 13 -14 158 92 246 179 61 61 90 99 120 159 l39 80 0
125 c0 111 -3 132 -24 178 -28 64 -103 135 -174 168 -46 22 -70 27 -167 39
-14 1 -55 -1 -92 -6z m187 -199 c67 -31 89 -69 93 -156 5 -92 -14 -150 -74
-225 -25 -32 -49 -58 -53 -58 -6 0 -39 102 -113 350 -15 52 -28 98 -28 103 0
17 131 7 175 -14z"/>
<path d="M7006 3209 c-65 -15 -153 -69 -206 -125 -125 -132 -152 -321 -70
-484 33 -65 108 -150 131 -149 11 0 470 511 543 604 20 25 20 25 -5 51 -82 88
-259 134 -393 103z m186 -157 c7 -7 -301 -372 -321 -380 -17 -6 -36 65 -35
128 1 154 139 279 293 266 30 -3 58 -9 63 -14z"/>
<path d="M10590 2694 c-251 -68 -356 -337 -215 -549 130 -194 434 -227 608
-66 24 23 59 69 78 103 32 59 34 69 34 158 0 74 -4 105 -20 138 l-20 44 -2
-46 c-5 -145 -172 -243 -324 -191 -131 45 -194 177 -138 292 24 50 68 87 136
113 l48 19 -65 0 c-36 0 -90 -7 -120 -15z"/>
<path d="M3790 2491 c-101 -32 -182 -100 -232 -193 -20 -37 -23 -58 -23 -148
0 -100 1 -108 34 -168 42 -77 94 -125 180 -166 61 -29 74 -31 171 -31 129 1
195 23 273 95 121 111 156 270 91 417 l-17 38 -7 -58 c-15 -123 -110 -197
-251 -197 -154 0 -265 144 -219 284 14 42 94 118 142 133 31 10 30 11 -27 11
-33 1 -85 -7 -115 -17z"/>
<path d="M12658 483 c20 -4 22 -10 22 -64 0 -76 18 -77 22 -2 3 51 6 58 28 64
16 5 4 7 -35 7 -33 -1 -50 -3 -37 -5z"/>
<path d="M12760 425 c0 -37 4 -65 10 -65 6 0 10 24 11 53 l0 52 21 -52 c11
-29 24 -53 29 -53 4 0 13 17 20 38 19 59 24 60 30 7 6 -49 6 -48 7 18 2 82
-13 86 -39 11 l-17 -49 -11 28 c-6 15 -14 39 -17 52 -4 16 -13 25 -25 25 -17
0 -19 -8 -19 -65z"/>
</g>
</svg>
